<?xml version="1.0" encoding="utf-8"?>
<!-- Generator: Adobe Illustrator 22.0.1, SVG Export Plug-In . SVG Version: 6.00 Build 0)  -->
<svg version="1.1" id="Laag_1" xmlns="http://www.w3.org/2000/svg" xmlns:xlink="http://www.w3.org/1999/xlink" x="0px" y="0px"
	 viewBox="0 0 1440 307" style="enable-background:new 0 0 1440 307;" xml:space="preserve">
<style type="text/css">
	.st0{fill:#E3F7CC;}
	.st1{fill:#C8C8C8;}
	.st2{fill:#A1E455;}
	.st3{fill:#E1E1E1;}
	.st4{fill:#848484;}
	.st5{fill:#0067A0;}
	.st6{fill:#3A6C00;}
	.st7{fill:#5CAC00;}
	.st8{fill:#D84A01;}
	.st9{fill:#646464;}
	.st10{fill:#00B5E2;}
	.st11{fill:#172B00;}
	.st12{fill:#DDDDDD;}
	.st13{fill:#73D700;}
	.st14{fill:#FFFFFF;}
	.st15{fill:#FFAD00;}
</style>
<title>euro-footer</title>
<g id="arbre-2">
	<polyline class="st0" points="544.1,153.5 543.5,153.3 543.2,152.7 543.1,134.4 553.1,130.4 563,134.4 563,143 564,143 564,138.4 
		571,108.3 578,138.4 578,143 580,143 580,137.4 583.4,133 587,133 587,131 593,131 593,133 597.4,133 601,137.4 601,141 603,141 
		603,133.4 611,128.4 619,133.4 619,144 621,144 621,124.9 627,123.4 633,124.9 633,152.5 632.9,153.4 632.1,154 544,154 	"/>
	<polygon class="st0" points="840,134.1 832,140.2 832,150 829,150 829,139 813,139 813,133 798,133 798,150 797,150 797,122 
		782,122 782,150 777,150 777,132.5 768.5,126.3 760,132.5 760,148.9 760,154 777.4,154 782,154 796.6,154 798.2,154 800.4,154 
		812.8,154 829.4,154 831.5,154 848,154 848,148.9 848,140.2 	"/>
	<polygon class="st0" points="977,150 977,139 961,139 961,133 946,133 946,150 945,150 945,122 930,122 930,150 930,154 977,154 	
		"/>
	<polyline class="st0" points="837.9,153.5 837.3,153.3 836.9,152.7 836.9,134.4 846.5,130.4 856,134.4 856,143 858,143 858,138.4 
		865,129.3 872,138.4 872,143 873,143 873,137.4 877.2,133 881,133 881,131 887,131 887,133 891.2,133 895,137.4 895,141 896,141 
		896,133.4 904.5,128.4 913,133.4 913,144 914,144 914,124.9 920.5,123.4 927,124.9 927,152.5 926.8,153.4 925.9,154 838,154 	"/>
	<polyline class="st0" points="540,154 451.6,154 451,153.4 451,152.5 451,124.9 457,123.4 463,124.9 463,144 465,144 465,133.4 
		473,128.4 481,133.4 481,141 483,141 483,137.4 486.4,133 490,133 490,131 496,131 496,133 500.4,133 504,137.4 504,143 506,143 
		506,138.4 513,129.3 520,138.4 520,143 521,143 521,134.4 530.8,130.4 540.6,134.4 540.6,152.7 540.2,153.1 539.6,153.5 	"/>
	<polygon class="st0" points="450,143 450,138.4 443,129.3 436,138.4 436,143 434,143 434,137.4 430.4,133 426,133 426,131 420,131 
		420,133 416.4,133 413,137.4 413,141 411,141 411,133.4 403,128.4 395,133.4 395,144 393,144 393,124.9 387,123.4 381,124.9 
		381,152.5 381,153.4 381.6,154 450,154 	"/>
	<path class="st0" d="M1440,90.1h-71.9c-50.9,0-52.3,0.1-65.4-13c-9-9-8.6-9-68.7-9h-117.6c-11.2,0-12.4-0.6-32,19
		c-10.4,10.4-18.1,18.2-35.9,36c-27,27-26,27.9-85.3,27.9H354.2c-30,0-32.6-3.6-44.6-15.7c-10.9-10.9-12.8-11.3-40.2-11.3H167.7
		c-27.2,0-29.4-0.3-46.7-16.3C98.5,87,106.3,89.6,64.9,89.6C49.4,89.6,0,90.1,0,90.1V183h1440V90.1z"/>
	<path class="st1" d="M811,52.1c0-5.1-3.2-9.6-8-11.4l-0.2-11l-1.7-0.1v-2.8l-1-0.7L799.6,4H798V3.8l0.8,0.2H798l-0.5,22.2l-1,0.8
		v2.7h-1.7l-0.2,11c-6.3,2.2-9.6,9-7.4,15.3c1.3,3.9,4.5,6.8,8.5,7.7v2.2H793v5h2.4l-2.8,91h12.5l-2.8-91h1.7V66h-2v-2.2
		C807.3,62.4,811,57.6,811,52.1z"/>
	<path class="st1" d="M617,142.5l-3.9-0.5c-0.1-0.4-0.2-0.8-0.5-1.1l2.3-3.1l-3,2.3c-0.3-0.2-0.7-0.3-1.1-0.4l-0.6-3.9l-0.5,3.9
		c-0.4,0.1-0.7,0.2-1.1,0.4l-3.1-2.4l2.3,3.1c-0.2,0.3-0.4,0.7-0.5,1.1l-3.9,0.5l3.9,0.6c0.1,0.4,0.2,0.8,0.4,1.1l-2.4,3.1l3.1-2.3
		c0.3,0.2,0.7,0.4,1.1,0.4l0.5,3.9l0.6-3.9c0.4-0.1,0.8-0.2,1.1-0.4l3.1,2.3l-2.4-3.1c0.2-0.3,0.4-0.7,0.4-1.1L617,142.5z
		 M622.3,89.6V68.5h-3v-4.6c0,0,0.2-8.6-8.1-9.1v-0.4c0.9-0.2,1.5-1,1.5-1.8c-0.1-0.9-0.7-1.6-1.5-1.8v-5.4h-1.8v5.4
		c-0.9,0.2-1.5,0.9-1.5,1.8c0.1,0.9,0.7,1.6,1.5,1.8v0.5c-8.1,0.7-8.1,9-8.1,9v4.6h-3v21.2H596v72.1h28.7V89.6L622.3,89.6z
		 M610.3,73.7c4.1,0,4,4.1,4,4.1v11.6h-8V77.8C606.3,77.8,606.2,73.7,610.3,73.7L610.3,73.7z M610.3,152c-5.2,0-9.5-4.2-9.5-9.5
		c0-5.2,4.2-9.5,9.5-9.5c5.2,0,9.5,4.2,9.5,9.4c0,0,0,0,0,0C619.8,147.7,615.6,152,610.3,152L610.3,152z"/>
	<path class="st1" d="M680.6,125.8L680.6,125.8c0-0.2-0.2-0.3-0.3-0.3h-1.7c-0.3-0.9-0.9-1.7-1.2-2.4l0,0c-2.6-5.3-4.6-10.9-6-16.6
		l0,0c-0.2-0.9-0.4-1.8-0.7-2.7l1.5-5.1l0,0v-0.7l0,0c0-0.2-0.2-0.3-0.3-0.3h-2.4c-1-6.3-2-14-2.9-23.8l0,0v-0.2
		c-0.7-8.6-1.5-18.8-2.2-31.1l0,0c-0.2-3.2-0.3-6.5-0.5-9.9l0,0c-0.2-1.9-0.2-3.8-0.3-5.8v-0.5c1.1-0.7,1.7-1.8,1.7-3.1v-1l0,0v-0.7
		c0-0.3-0.5-0.7-1.2-1v-2.1h1c0.2,0,0.3-0.2,0.3-0.3v-1.6l0,0c0-0.2-0.2-0.3-0.3-0.3c-1.1-0.1-2.1-0.8-2.6-1.9
		c-0.7-1.6-1.1-3.4-1-5.1V8.2c0-0.6-1.4-0.6-1.4,0c0,0,0,0.6,0,0.9l0,0c0.1,1.8-0.2,3.6-1,5.3c-0.4,1.1-1.4,1.8-2.6,1.9
		c-0.2,0-0.3,0.2-0.3,0.3l0,0v1.5c0,0.2,0.2,0.3,0.3,0.3h1v2c-0.7,0.2-1.2,0.5-1.2,1v0.3l0,0v1c0,1.3,0.6,2.5,1.7,3.1v0.5
		c-0.2,1.9-0.2,3.9-0.3,5.8l0,0c-0.2,3.4-0.3,6.8-0.5,9.9l0,0c-0.7,12.3-1.4,22.6-2.2,31.1v0.2l0,0c-0.9,9.8-1.9,17.4-2.9,23.8h-2.4
		c-0.2,0-0.3,0.2-0.3,0.3l0,0v0.7l0,0l1.5,5.1c-0.1,0.9-0.4,1.8-0.7,2.7l0,0c-1.4,5.7-3.4,11.3-6,16.6l0,0c-0.3,0.9-0.9,1.7-1.2,2.4
		h-1.7c-0.2,0-0.3,0.2-0.3,0.3l0,0v7.2l-2.2,3.6l0,0l-0.7,1.2l0,0l-3.8,7l0,0l-2.9,5l0,0l-3.2,5.5v0.2l0,0v6.5H694v-6.3l0,0v-0.2
		l-3.2-5.5l0,0l-3.1-5.1l0,0l-4-6.6l0,0l-0.7-1.2l0,0l-2.2-3.6v-7.4L680.6,125.8z M655.3,123.2L655.3,123.2c0.5-1.9,0.9-3.8,1.2-5.7
		l0,0c0.3-1.9,0.7-3.8,0.9-5.8l0,0c0-0.5,0.2-0.9,0.2-1.4h6.8c0,0.5,0.2,0.9,0.2,1.4l0,0c0.3,2.1,0.5,4.1,0.9,5.8l0,0
		c0.3,1.9,0.7,3.8,1.2,5.7l0,0c0.2,0.7,0.3,1.5,0.5,2.2h-12.3C655,124.6,655.1,123.9,655.3,123.2L655.3,123.2z M661,155.1h-18
		c0.2-0.5,0.3-1,0.3-1.5l0,0c1.2-3.4,3.4-6.4,6.5-8.4l0,0c0.5-0.3,0.9-0.5,1.4-0.9c0.2-0.2,0.3-0.2,0.7-0.3l0,0
		c2.8-1.4,5.8-2.1,8.9-2.1l0,0c3.1,0,6.1,0.7,8.9,2.1l0,0c0.2,0.2,0.3,0.2,0.7,0.3c0.5,0.2,1,0.5,1.4,0.9l0,0
		c3.1,1.9,5.4,4.9,6.5,8.4l0,0c0.2,0.5,0.3,1,0.3,1.5H661z"/>
	<path class="st1" d="M591.7,159.8l-0.6-24.6c-8.5-9.6-35.3-8.9-43.7-8.4c0,0,0.8,5.7,1.3,7.5c0.3,1.3,1.8,5,1.8,5l4.5,0.4
		c1.2,0.1,2.2,1.1,2.3,2.3l0.9,8.4l5.1,10.1c0.2,0.4,0.3,0.8,0.3,1.2h1.3c-0.2-0.8-0.3-1.7-0.3-2.6c0.1-1.6-0.3-3.1-0.2-4.6
		c-0.1-1.4,1-2.5,2.4-2.6c0.1,0,0.2,0,0.4,0c1,0.2,1.9,0.9,2.2,1.9c0.2,1.1,0.3,2.2,0.2,3.3c-0.1,1.1,0.1,3.2-0.1,4.4l2.7-0.1
		c-0.2-0.8-0.3-1.6-0.2-2.4c0.1-1.4-0.3-2.8-0.2-4.2c0.1-1.3,0.7-2.4,2.2-2.3c0.9,0.2,1.6,0.9,1.8,1.7c0.2,1,0.2,2,0.1,3
		c-0.1,1,0,2.9-0.1,4l2.1-0.1c-0.1-0.6-0.1-1.2-0.1-1.8c0.1-1.4-0.2-2.8-0.1-4.1s0.5-2.4,1.6-2.3c0.5,0.1,1.2,0.9,1.3,1.7
		c0.1,1,0.2,1.9,0.1,2.9c0,0.9,0,2.3,0,3.4l1.7-0.1c-0.1-0.7-0.2-1.3-0.1-2c0-1.2-0.2-2.4-0.1-3.6s0.4-2.1,1.3-2
		c0.4,0,0.9,0.8,1,1.5c0.1,0.8,0.1,1.7,0.1,2.5c0,0.9,0,2.4,0,3.4l1.2-0.1c-0.1-0.6-0.1-1.2-0.1-1.8c0-1.1-0.1-2.2-0.1-3.4
		s0.3-1.9,0.8-1.9c0.3,0,0.6,0.7,0.7,1.4c0.1,0.8,0.1,1.6,0,2.4c0,0.8,0,2.2,0,3.1l1.1-0.1c0-0.5,0-1.3,0-1.5c0-1-0.1-2.1,0-3.1
		s0.2-1.8,0.6-1.7c0.2,0,0.5,0.7,0.5,1.3s0.1,1.5,0,2.2s0,1.9,0,2.8l1-0.1c0-0.5,0-1.1,0-1.3c0-1-0.1-1.9,0-2.9s0.2-1.7,0.5-1.6
		c0.2,0,0.4,0.6,0.4,1.2s0,1.4,0,2.1s0,1.7,0,2.5L591.7,159.8z M564.3,143.2c-0.1,1.1,0.1,3-0.1,4.1c0,0.2-3.5,0.1-3.5,0.1
		c-0.5,0-0.5-1.9-0.4-2.3c0.1-1.4-0.3-2.8-0.2-4.2c0.1-1.3,0.7-2.4,2.2-2.3c0.9,0.2,1.6,0.9,1.8,1.7
		C564.3,141.2,564.4,142.2,564.3,143.2L564.3,143.2z M569.6,147.4H567c-0.3,0-0.2-1.7-0.2-2.2c0.1-1.4-0.2-2.8-0.1-4.1
		c0.1-1.2,0.5-2.4,1.6-2.3c0.5,0,1.2,0.9,1.3,1.7c0.1,1,0.2,1.9,0.1,2.9C569.6,144.5,569.7,146.3,569.6,147.4L569.6,147.4z
		 M574.8,143.8c0,0.9,0,2.9-0.2,3.9l-2.4-0.1c-0.3,0-0.4-1.8-0.3-2.2c0.1-1.2-0.2-2.4-0.1-3.6s0.5-2.1,1.6-2
		c0.7,0.2,1.2,0.8,1.3,1.5C574.8,142.1,574.8,143,574.8,143.8L574.8,143.8z M579.9,144.2c0,0.9,0,2.9-0.2,3.9l-2.4-0.1
		c-0.3,0-0.4-1.8-0.3-2.2c0.1-1.2-0.2-2.4-0.1-3.6s0.5-2.1,1.6-2c0.7,0.2,1.2,0.8,1.3,1.5C579.9,142.5,580,143.3,579.9,144.2
		L579.9,144.2z M583.6,148.1c-0.1,0.4-1.9,0.1-1.9,0.1c-0.2,0-0.3-1.7-0.3-2.1c0-1.1-0.1-2.3-0.1-3.4s0.4-2,1.3-1.9
		c0.4,0,0.9,0.8,1,1.4c0.1,0.8,0.1,1.6,0.1,2.4C583.7,145.8,583.7,147,583.6,148.1L583.6,148.1z M586.2,145c0,0.8,0,2.5,0,3.3
		c0,0.1-1.3,0-1.3,0c-0.2,0-0.2-1.6-0.2-1.9c0-1-0.1-2.1-0.1-3.1s0.3-1.8,0.8-1.7c0.3,0,0.6,0.7,0.7,1.3
		C586.3,143.6,586.3,144.3,586.2,145L586.2,145z M588.4,145.5c0,0.8,0,2.4,0,3.2l-1-0.1c-0.1-0.6-0.2-1.2-0.1-1.8c0-1-0.1-2,0-3
		s0.2-1.7,0.6-1.6c0.2,0,0.5,0.6,0.5,1.2S588.4,144.8,588.4,145.5L588.4,145.5z M590.3,145.8c0,0.7,0,2.1,0,2.8
		c0,0.1-0.8-0.1-0.8-0.1c-0.1-0.5-0.1-1.1-0.1-1.6c0-0.9-0.1-1.7,0-2.6s0.2-1.5,0.5-1.4c0.2,0,0.4,0.6,0.4,1.1
		S590.2,145.2,590.3,145.8L590.3,145.8z"/>
	<path class="st1" d="M554.8,143.2c-0.1-0.3-0.1-0.5-0.2-0.7c-0.1-0.2-0.7-0.2-0.7-0.2l-5.3-0.4c0,0-2-5.1-2.4-6.8
		c-0.5-2.1-1.4-8.4-1.4-8.4s-0.1-0.6-0.3-0.8s-0.7-0.1-0.7-0.1l-3.8,0.1h-0.9l-0.2-0.5c-1-2.2-1.8-4.5-2.5-6.8
		c-0.3-2.4-0.5-4.8-0.5-7.2c0,0,0-0.4-0.1-0.5c-0.1-0.1-0.2-0.1-0.3-0.1l-1.3-0.1c-0.1,0-0.2-0.1-0.4-0.1c-0.1-0.1-0.2-0.2-0.3-0.3
		l-6-11.7c-0.1-0.1-0.2-0.3-0.3-0.4c-0.2-0.1-0.4-0.1-0.6,0c-23.4,7.1-24.8,19.1-24.8,19.1l-1.6,43.6c0.7,0,0.4,0.1,1.1,0.1
		c-0.1-1.9-0.1-3.8-0.1-5.7c0.1-1.1,1-1.9,1.4-1.4c0.4,0.8,0.6,1.7,0.5,2.6c-0.1,0.9,0,3.8-0.1,4.5l1.4,0.1c-0.1-2-0.2-4-0.1-6
		c0.1-1.2,1.2-2.1,1.8-1.5c0.5,0.8,0.8,1.8,0.7,2.8c-0.1,0.9,0,3.8-0.1,4.8h1.4c-0.2-2.2-0.2-4.3-0.1-6.5c0.1-1.2,1.6-2.2,2.3-1.6
		c0.7,0.8,1,1.9,0.9,2.9c-0.1,1,0,4.4-0.2,5.2l2.3,0.1c-0.2-1-0.1-4.5-0.2-5.6c-0.2-1.2,0.2-2.4,1-3.2c0.9-0.7,2.8,0.4,2.9,1.7
		c0.2,2.4,0.1,4.8-0.1,7.1l3.3,0.1c-0.2-1.2-0.1-4.9-0.3-6.1c-0.2-1.3,0.2-2.6,1.2-3.5c1-0.8,3,0.4,3.1,1.9c0.2,2.6,0.1,5.2-0.1,7.8
		l3.7,0.1c-0.3-1-0.2-5.3-0.4-6.6c-0.2-1.4,0.3-2.8,1.4-3.7c1.2-0.8,3.7,0.4,3.9,2c0.2,2.8,0.2,5.6-0.2,8.4l0,0l4.5,0.1
		c-0.2-3.1-0.2-6.2-0.1-9.2c0.1-0.9,0.9-1.7,1.9-1.7c1.5-0.2,3.6,1,3.4,2.9c0,0.6,0,1.3,0,1.9s0,1.2,0,2c0,1.4-0.1,2.8-0.3,4.2h4.7
		c-0.5-0.9-0.3-5.6-0.5-7c-0.2-1.5,0.4-3,1.6-3.9c1.4-0.9,4.2,0.4,4.4,2.1c0.2,2.9,0.2,5.9-0.2,8.8l0,0c6.2,0,9.6-0.1,9.6-0.1
		l-5.3-10.5L554.8,143.2z M516,104.3c0.6-0.1,1.2-0.2,1.3,0.5c0.1,0.8-0.8,1.1-1.4,1.3c-0.4,0.1-1.2,0.1-1.2-0.6
		C514.8,104.8,515.3,104.3,516,104.3z M508.8,109.1c0.5-0.1,1.1,0.2,1.3,0.7c-0.1,0.6-0.6,0.8-1.1,0.9s-0.9,0.1-1-0.6
		c-0.1-0.4,0.1-0.9,0.6-1C508.6,109.1,508.7,109.1,508.8,109.1L508.8,109.1z M505.8,111.9c0.6-0.1,1.1,0.1,1.2,0.5s-0.4,0.9-1,0.8
		s-1.1,0.3-1.2-0.3S505.2,112,505.8,111.9L505.8,111.9z M503,115.1c0.5-0.1,1.1-0.2,1.3,0.5s-0.3,0.8-0.9,0.9s-1-0.1-1.2-0.7
		S502.6,115.2,503,115.1z M503.4,147c0,0.2-1.1,0.4-1.2,0.1s-0.1-3.3-0.1-4.1c-0.1-0.8,0.1-1.6,0.4-2.3c0.3-0.5,1,0.2,1,1.2
		C503.5,143.2,503.5,145.7,503.4,147L503.4,147z M504.5,132.2c0,0.7,0,1.9,0,2.5c0,0-1.4,1-1.5,0.8c-0.2-1.6-0.2-3.2-0.1-4.8
		c0-0.8,0.3-1.4,0.9-1.4c0.3,0,0.7,0.6,0.7,1C504.5,131,504.5,131.6,504.5,132.2L504.5,132.2z M506.9,146.3c0,0.2-1.8,0.4-2,0.1
		c-0.1-1.4-0.2-2.9-0.2-4.3c-0.1-0.8,0.1-1.7,0.6-2.4c0.5-0.5,1.6,0.3,1.7,1.3C507,142.8,507,144.5,506.9,146.3L506.9,146.3z
		 M507.8,130.4c0,0.8,0,2.2-0.1,3c0,0-1.8,0.9-2,0.7c-0.2-1.8-0.3-3.6-0.2-5.3c0-0.9,0.4-1.7,1.2-1.6c0.4,0,0.9,0.6,1,1.2
		C507.8,129,507.8,129.7,507.8,130.4L507.8,130.4z M511.1,145.8c0,0.2-2.5,0.5-2.8,0.1s-0.2-3.7-0.3-4.7c-0.1-0.9,0.2-1.9,0.9-2.6
		c0.7-0.6,2.2,0.3,2.3,1.4C511.3,141.9,511.3,143.8,511.1,145.8L511.1,145.8z M512.2,128.7c0,0.8,0,2.1-0.1,2.9c0,0-2,0.9-2.3,0.7
		c-0.2-1.8-0.3-3.6-0.2-5.3c0-0.9,0.5-1.8,1.4-1.7c0.6,0.2,1,0.7,1.1,1.3C512.2,127.2,512.2,128,512.2,128.7L512.2,128.7z
		 M512.2,108.4c-0.6,0.1-1.3,0.1-1.2-0.6c0.1-0.7,0.6-1.2,1.3-1.2c0.6,0,1.3-0.1,1.3,0.5C513.6,107.8,513,108.4,512.2,108.4
		C512.3,108.4,512.2,108.4,512.2,108.4L512.2,108.4z M516.8,144.8c0,0.2-2.8,0.7-3.2,0.3s-0.2-4-0.3-5s0.5-2.8,1.8-2.8
		c0.9-0.1,1.7,0.5,1.8,1.4c0,0,0,0.1,0,0.1C517.1,140.8,517,142.8,516.8,144.8L516.8,144.8z M518,126.9c0,0.9,0.1,2.4-0.1,3.3
		c0,0-2.6,0.8-2.9,0.5s-0.3-4.6-0.3-5.8s0.6-2,1.7-1.9c0.7,0.2,1.2,0.7,1.4,1.4C518,125.3,518.1,126.1,518,126.9z M518.8,103.6
		c0-0.7,0.6-1,1.1-1s1.2-0.1,1.2,0.6s-0.8,0.7-1.4,0.8C519.3,103.9,518.8,104.2,518.8,103.6L518.8,103.6z M523.8,144.1
		c0,0.2-3.4,0.7-3.8,0.3s-0.2-4.3-0.4-5.4c-0.2-1.1,0.3-2.2,1.2-2.9c1.2-0.5,2.6,0.1,3.1,1.4c0,0,0,0.1,0.1,0.2
		C524.1,139.8,524,142,523.8,144.1L523.8,144.1z M524.7,125.2c-0.1,1,0.1,2.6-0.1,3.6c0,0-3.1,0.8-3.4,0.6s-0.4-5-0.3-6.2
		s0.7-2.1,2.1-2c0.8,0.1,1.4,0.7,1.7,1.5C524.7,123.5,524.7,124.4,524.7,125.2L524.7,125.2z M523.8,102.5c-0.3-0.1-1.3,0.7-1.3-0.3
		s1.2-1.3,2.1-1.6c0.7-0.2,1.5,0.2,1.5,0.6C525.9,102.3,524.9,102.4,523.8,102.5L523.8,102.5z M532.2,143.3c0,0.3-4.1,0.8-4.6,0.3
		s-0.3-4.5-0.5-5.6c-0.2-1.2,0.4-2.4,1.4-2.9c1.2-0.7,3.7,0.3,3.9,1.6C532.6,138.8,532.5,141.1,532.2,143.3L532.2,143.3z
		 M532.8,123.4c-0.1,1,0.1,2.9-0.1,3.9c0,0-3.7,0.7-4.2,0.4s-0.5-5.1-0.4-6.4c0-1.2,1-2.2,2.2-2.1c0.1,0,0.2,0,0.3,0
		c0.9,0.1,1.7,0.7,2,1.6C532.8,121.6,532.8,122.5,532.8,123.4L532.8,123.4z M541.7,140.4c0,0.5,0,2.5-0.6,2.6s-4.7-0.1-4.7-0.1
		c-0.2-1.4-0.2-2.8-0.2-4.2c-0.1-1-0.1-2,0.1-2.9c0.4-1,1.3-1.6,2.3-1.8c2-0.1,3,1,3.1,2.2C542,137.7,541.5,139,541.7,140.4
		L541.7,140.4z"/>
	<path class="st1" d="M899.7,137.2v-3.5h-0.1c-0.2-0.6-0.7-1.1-1.3-1.3l-0.3-1.1l-0.4-1.6l-0.4,1.6l-0.3,1.1c-0.6,0.2-1,0.6-1.3,1.1
		h-0.2v-5.9h-0.6v-3.3h-0.5l-0.3-1.4l-0.5-2.7l-0.5,2.7l-0.3,1.4h-0.5v3.3h-0.6v5.9h-1.4v2.8l-1.5,1v4.5h-1.2v-0.1l0,0v-0.8h-0.6
		l-0.2-0.7l-0.2-0.8l-0.2,0.8l-0.2,0.7h-0.6v0.8l0,0v0.1h-0.9v-2.6h-0.4v-1.4h-0.2l-0.2-1l-0.2-1.3l-0.2,1.3l-0.1,1h-0.2v1.4h-0.4
		v2.6h-1.2v-0.1l0,0v-0.8H881l-0.2-0.7l-0.2-0.8l-0.2,0.8l-0.2,0.7h-0.6v0.8l0,0v0.1h-0.9v-2.7h-0.4v-1.3H878l-0.1-1l-0.2-1.3
		l-0.2,1.3l-0.2,1h-0.2v1.3h-0.4v2.7h-1.2v-0.1l0,0v-0.8H875l-0.2-0.7l-0.2-0.8l-0.2,0.8l-0.2,0.7h-0.6v0.8l0,0v0.1h-0.9v-2.7h-0.4
		v-1.3H872l-0.2-1l-0.2-1.3l-0.2,1.3l-0.2,1h-0.2v1.3h-0.4v2.7h-1.2v-0.1l0,0v-0.8H869l-0.2-0.7l-0.2-0.8l-0.2,0.8l-0.2,0.7h-0.6
		v0.8l0,0v0.1h-0.9v-2.6h-0.4v-1.4h-0.2l-0.2-1l-0.2-1.3v0.2v0.3l-0.2,1l-0.2,1h-0.2v1.4h-0.4v2.5h-1.2v-0.1l0,0V141h-0.6l-0.2-0.7
		l-0.2-0.8l-0.2,0.8l-0.2,0.7h-0.6v0.9l0,0v0.1h-0.9v-2.6h-0.4V138h-0.2l-0.2-1l-0.2-1.3l-0.2,1.3l-0.2,1h-0.2v1.4H859v2.6h-1.2
		v-0.1l0,0V141h-0.6l-0.2-0.7l-0.2-0.8l-0.2,0.8l-0.2,0.7h-0.6v0.9l0,0v0.1h-0.9v-2.4h-0.4v-1.4h-0.2l-0.1-1l-0.2-1.3l-0.2,1.3
		l-0.2,1h-0.2v1.4H853v2.4h-1.2v-0.1l0,0V141h-0.6l-0.2-0.7l-0.2-0.8v0.1l-0.2,0.7l-0.2,0.7h-0.6v0.9l0,0v0.1H849v-2.6h-0.4v-1.3
		h-0.2l-0.1-1l-0.2-1.3l-0.2,1.3l-0.1,1h-0.2v1.4h-0.4v2.5h-1.2v-0.1l0,0V141h-0.6l-0.2-0.7l-0.2-0.8l-0.2,0.8l-0.2,0.7H844v0.9l0,0
		v0.1h-0.8v-2.4h-0.4v-1.4h-0.2l-0.2-1l-0.2-1.3l-0.2,1.3l-0.1,1h-0.2v1.4h-0.4v2.4H840v-1h-0.6l-0.2-0.7l-0.2-0.8l-0.2,0.8
		l-0.2,0.7H838v1h-0.8v-2.6h-0.4v-1.3h-0.2l-0.2-1l-0.2-1.3l-0.2,1.3l-0.1,1h-0.2v1.4h-0.4v2.5h-1.3v-1h-0.6l-0.2-0.7v-0.1l-0.2-29
		h0.8l0,0l-0.2-17h0.3v-1.3h-1.9v-2l-4.5-8.2l0,0l-0.1-5.7h-0.1c-0.3-0.8-5.1-14.2-5.5-16.2h-0.5c-0.3,2.1-4.8,15.5-5.1,16.3h-0.1
		l0.1,5.7l-4.3,8.2l0,0v2l0,0h-1.9v1.3h0.3l0.2,17l0,0h0.8l0.4,50.4h87.9v-19.8l0.2-0.1v-4L899.7,137.2z M822.6,110.8h-0.3
		c-4.7,0-8.5-3.7-8.5-8.3s3.7-8.5,8.3-8.5l0,0h0.3c4.6,0.2,8.3,4,8.1,8.7C830.3,107,826.9,110.5,822.6,110.8L822.6,110.8z"/>
	<path class="st1" d="M822.2,101.5L822.2,101.5L822.2,101.5l-3.6-3.5l-0.9,1l3.5,3.5c0,0.6,0.4,1,1,1c0.1,0,0.2,0,0.3-0.1v-2.2
		L822.2,101.5z"/>
	<path class="st1" d="M826.9,96.7l-4.5,4.5v2.2c0.4-0.1,0.7-0.5,0.7-0.9l0,0l4.7-4.8L826.9,96.7z"/>
	<path class="st1" d="M779,126.8l-8.5,7v-26h-1v-2l-5-2l-12-7v-3l-9-2v-1h1v-1H743v-2h-1v2h-1.5v1h1v1l0,0l-9,2v3l-12,7l-5,2v2h-1
		v26l-8.5-7l-8.5,7v28h90v-28L779,126.8z M702.5,141.8h-3v-3h3V141.8z M707.5,141.8h-3v-3h3V141.8z M712.5,141.8h-3v-3h3V141.8z
		 M720.5,156.8h-4v-18h4V156.8z M721.4,121.2c-1.4,0-2.5-1.1-2.5-2.5s1.1-2.5,2.5-2.5s2.5,1.1,2.5,2.5
		C723.9,120.1,722.8,121.2,721.4,121.2L721.4,121.2z M728.4,141.8c-0.8,0-1.5-0.7-1.5-1.5s0.7-1.5,1.5-1.5s1.5,0.7,1.5,1.5
		C729.9,141.1,729.3,141.7,728.4,141.8L728.4,141.8z M728.4,121.2c-1.4,0-2.5-1.1-2.5-2.5s1.1-2.5,2.5-2.5s2.5,1.1,2.5,2.5
		C730.9,120.1,729.8,121.2,728.4,121.2L728.4,121.2z M738,159.8h-5v-8h5V159.8z M738,150.8h-5v-2h5V150.8z M733.9,140.2
		c0-0.8,0.7-1.5,1.5-1.5s1.5,0.7,1.5,1.5s-0.7,1.5-1.5,1.5C734.6,141.7,734,141.1,733.9,140.2L733.9,140.2z M735.4,121.2
		c-1.4,0-2.5-1.1-2.5-2.5s1.1-2.5,2.5-2.5s2.5,1.1,2.5,2.5C737.9,120.1,736.8,121.2,735.4,121.2L735.4,121.2z M745,159.8h-5v-8h5
		V159.8z M745,150.8h-5v-2h5V150.8z M740.9,140.2c0-0.8,0.7-1.5,1.5-1.5s1.5,0.7,1.5,1.5s-0.7,1.5-1.5,1.5
		C741.6,141.7,741,141.1,740.9,140.2L740.9,140.2z M742.4,121.2c-1.4,0-2.5-1.1-2.5-2.5s1.1-2.5,2.5-2.5s2.5,1.1,2.5,2.5
		C744.9,120.1,743.8,121.2,742.4,121.2L742.4,121.2z M752,159.8h-5v-8h5V159.8z M752,150.8h-5v-2h5V150.8z M747.9,140.2
		c0-0.8,0.7-1.5,1.5-1.5s1.5,0.7,1.5,1.5s-0.7,1.5-1.5,1.5C748.6,141.7,748,141.1,747.9,140.2L747.9,140.2z M749.4,121.2
		c-1.4,0-2.5-1.1-2.5-2.5s1.1-2.5,2.5-2.5s2.5,1.1,2.5,2.5C751.9,120.1,750.8,121.2,749.4,121.2L749.4,121.2z M756.4,141.8
		c-0.8,0-1.5-0.7-1.5-1.5s0.7-1.5,1.5-1.5s1.5,0.7,1.5,1.5C757.9,141.1,757.3,141.7,756.4,141.8L756.4,141.8z M756.4,121.2
		c-1.4,0-2.5-1.1-2.5-2.5s1.1-2.5,2.5-2.5s2.5,1.1,2.5,2.5C758.9,120.1,757.8,121.2,756.4,121.2L756.4,121.2z M760.9,118.8
		c0-1.4,1.1-2.5,2.5-2.5s2.5,1.1,2.5,2.5s-1.1,2.5-2.5,2.5C762.1,121.2,761,120.1,760.9,118.8L760.9,118.8z M768.5,156.8h-4v-18h4
		V156.8z M775.5,141.8h-3v-3h3V141.8z M780.5,141.8h-3v-3h3V141.8z M785.5,141.8h-3v-3h3V141.8z"/>
	<path class="st2" d="M1440,105h-71.2c-51.8,0-57.2,3.3-70.6-10c-16.6-16.7-19.2-15-57.2-15h-86.6c-12,0-18.8,4.5-37.9,23.7
		c-14.1,14.1-15.6,16.2-35.7,36.3c-22.1,22.1-27,29-54.2,29H325c-15,0-19.1-7.1-28-15.9c-14.2-14.2-15.9-14.7-46.4-14.7
		c-40.3,0-30.6-1.1-84.9-1.1c-43.2,0-45.3,0.4-58.6-12.9C87.4,104.6,84.8,105,59.9,105H0v114h1440V105z"/>
	<rect y="213.5" class="st3" width="1440" height="40"/>
	<rect y="247" class="st2" width="1440" height="60"/>
	<path class="st4" d="M182.9,213.4c-0.1-0.8-0.2-1.5-0.6-1.8c-4.8-2.9-16.7-3.1-17.4-3.1s-3.5-0.4-3.5-0.4
		c-10.6-5.9-12.2-6.4-14.7-6.8c-6.2-1-12.6-1-18.8-0.2c-7.6,1-14.3,4.4-15.7,5s-1.2,0.5-3.4,0.7s-5.4,0.3-6.4,0.3
		c-0.1,0-0.3,0-0.4,0c-0.3,0-0.7,0.2-0.9,0.4l-0.1,0.1c-0.1,0.1-0.1,0.2-0.2,0.3c-0.1,0.5-0.1,3.6-0.2,4.1s-1.6,1.2-2,1.6
		c-0.2,0.2,0.9,5.7,1.5,6.7s8,1.7,8,1.7h0.1h1c0.3,0.9,0.8,1.7,1.4,2.4H105c-1,0-1.9,0.4-2.5,1.2l-0.6,1c-0.2,0.6,0.4,0.8,1,0.8
		l77.8,0.1c0.7,0,1.1-0.4,0.8-0.9c-0.6-1-1.8-1.6-3-1.5h-1.2c0.3-1,0.6-1.3,0.8-1.9c0.4,0,0.9-0.2,1.3-0.2c1.2,0,2.5-0.3,3.6-0.9
		c0.1-0.1,0.2-0.1,0.2-0.2c0,0,0,0,0-0.1C183.2,221.2,183,214.2,182.9,213.4z M163.8,223.3h1.2c0.2,0.4,0.4,0.7,0.6,1.1h-44.3
		c0.3-0.4,0.6-0.9,0.9-1.4h1.8L163.8,223.3z"/>
	<path class="st4" d="M986.2,228.6c-0.7-2.4-2.6-4.4-5-5.2c-3.8-1.6-17.5-7.4-21.5-8.7c-6.3-2-12.9-2.7-19.4-2.1
		c-8,0.9-11.5,1.3-12.1,2s-0.3,1.1-0.7,1.6s-4.3,5.1-4.2,7.6s0.3,3.5-0.6,4.6c-0.6,0.8-1.1,1.8-1.4,2.8v0.1v0.2
		c-0.7,1.9-0.7,4.1,0,6c0.1,0.2,0.3,0.4,0.6,0.4l1.6,0.1c0.1,0.7,0.2,1.4,0.5,2c-0.2,0.1-0.3,0.3-0.4,0.4l-0.9,1.7
		c-0.2,0.4-0.1,0.8,0.3,1c0.1,0.1,0.2,0.1,0.4,0.1l63.6-0.1c0.4,0,0.7-0.3,0.7-0.7c0-0.2-0.1-0.3-0.2-0.5l-1.3-1.4
		c-0.4-0.4-0.9-0.6-1.4-0.6h-2.2c0.2-0.5,0.4-1,0.5-1.5c0.1,0.1,0.3,0.1,0.4,0.2c0.3,0.2,0.7,0.3,1.1,0.1c0,0,1.8-0.3,2.4-1.2
		c0.5-0.9,0.8-2,0.8-3.1C987.2,232.5,986.7,230.5,986.2,228.6z M934.5,238.7c0.3,0,1,0.1,1.3,0.1c0.7,0,7.4,0,8.8-0.1
		c1.7-0.1,22.1-0.4,23.7-0.4c0.6,0,3.1-0.2,3.3-0.2c0.1,0.6,0.3,1.2,0.6,1.7l-38.1-0.1C934.3,239.4,934.4,239,934.5,238.7z"/>
	<path class="st4" d="M582,239.1c-0.5-0.7-1.3-0.6-2.2-0.6h-1.3c0.1-0.1,0.2-0.6,0.3-0.7h3.5c0.3-0.3,0.6-0.7,0.8-1.1
		c1.1-2.1,1.6-4.4,1.3-6.8l-1-0.8c-0.3-1.5-0.8-2.9-1.6-4.2c-0.3-0.5-0.7-0.9-1.2-1.3c-0.9-0.3-1.8-0.5-2.6-0.6
		c-5.2-1-12.8-1.5-12.8-1.5l-7.6-5.2c-2.9-2-6.3-2.4-9.1-2.6c-0.1,0-0.2,0.1-0.4,0.1c-0.4-0.5-1-0.8-1.7-0.8h-33.1
		c-0.7,0-1.3,0.3-1.7,0.8c-0.2,0-0.4,0-0.6,0.1c-1.5,0.5-2.8,1.4-3.8,2.6c-2.6,3.2-3.4,10.7-3.4,10.9v1.1c0,0.1-1.3,0.5-1.3,0.5
		c-0.1,4.7,1.8,5.9,1.8,5.9c3.3,0.4,6.7,0.7,10,0.7c0.1,0.7,0.3,1.4,0.6,2h-6.1c-0.8,0-1.6,0.4-2,1L506,240
		c-0.2,0.4-0.1,0.9,0.3,1.1c0.1,0.1,0.3,0.1,0.4,0.1l75.3,0.4c0.5,0,0.9-0.4,0.9-0.9c0-0.2-0.1-0.3-0.1-0.5L582,239.1z M564.6,237
		h1.2c0.1,0,0.3,0.7,0.5,1.1l-38.8-0.5c0.2-0.4,0.4-0.8,0.5-1.2L564.6,237z"/>
	<path class="st5" d="M1194.6,139h5.7l-1.5-63.2c-0.9,0.4-1.8,0.5-2.7,0.2L1194.6,139z"/>
	<path class="st5" d="M1197.4,67.7c-2,0-3.5,1.7-3.5,3.6c0,2,1.7,3.5,3.6,3.5c2,0,3.5-1.7,3.5-3.6c0-1.3-0.8-2.5-1.9-3.1
		C1198.5,67.9,1198,67.7,1197.4,67.7z"/>
	<path class="st5" d="M1201.7,71.7c-0.1,1-0.6,2-1.3,2.7c1.1,1.4,2.3,2.7,3.7,3.8c0.8,0.4,11.2,3.8,14.7,4.6
		c2.1,0.5,7.3,1.5,7.8,0.5c0.1-0.2,0-0.4-0.2-0.7c-0.6-0.8-5.3-3.3-5.7-3.5C1209.3,73.2,1203.9,71.9,1201.7,71.7z"/>
	<path class="st5" d="M1193.4,40.2c-0.2,0-0.3,0.2-0.5,0.5c-0.4,0.9-0.2,6.3-0.2,6.6c0.5,12.6,2,17.9,2.9,20c1-0.4,2.1-0.5,3.1-0.2
		c0.6-1.6,1.1-3.3,1.4-5c0-0.9-2.3-11.6-3.3-15C1196.2,45.2,1194.6,40.1,1193.4,40.2L1193.4,40.2z"/>
	<path class="st5" d="M1193.2,71.9c-1.8,0.3-3.5,0.7-5.3,1.3c-0.7,0.5-8.9,7.8-11.3,10.4c-1.7,1.9-6.2,6.9-3.7,6.7
		c1-0.1,5.5-3,5.8-3.2c10.6-6.7,14.5-10.7,15.9-12.5C1193.9,73.9,1193.4,72.9,1193.2,71.9L1193.2,71.9z"/>
	<path class="st5" d="M1269.6,187h5.7l-1.5-63.2c-0.9,0.4-1.8,0.5-2.7,0.2L1269.6,187z"/>
	<path class="st5" d="M1272.4,115.7c-2,0-3.5,1.7-3.5,3.6c0,2,1.7,3.5,3.6,3.5c2,0,3.5-1.7,3.5-3.6c0-1.3-0.8-2.5-1.9-3.1
		C1273.5,115.9,1273,115.7,1272.4,115.7z"/>
	<path class="st5" d="M1276.7,119.7c-0.1,1-0.6,2-1.3,2.7c1.1,1.4,2.3,2.7,3.7,3.8c0.8,0.4,11.2,3.8,14.7,4.6
		c2.1,0.5,7.3,1.5,7.8,0.5c0.1-0.2,0-0.4-0.2-0.7c-0.6-0.8-5.3-3.3-5.7-3.5C1284.3,121.2,1278.9,119.9,1276.7,119.7z"/>
	<path class="st5" d="M1268.4,88.2c-0.2,0-0.3,0.2-0.5,0.5c-0.4,0.9-0.2,6.3-0.2,6.6c0.5,12.6,2,17.9,2.9,20.1
		c1-0.4,2.1-0.5,3.1-0.2c0.6-1.6,1.1-3.3,1.4-5c0-0.9-2.3-11.6-3.3-15C1271.2,93.2,1269.6,88.1,1268.4,88.2L1268.4,88.2z"/>
	<path class="st5" d="M1268.2,119.9c-1.8,0.3-3.5,0.7-5.3,1.3c-0.7,0.5-8.9,7.8-11.3,10.4c-1.7,1.9-6.2,6.9-3.7,6.7
		c1-0.1,5.5-3,5.8-3.2c10.6-6.7,14.5-10.7,15.9-12.5C1268.9,121.9,1268.4,120.9,1268.2,119.9L1268.2,119.9z"/>
	<path class="st5" d="M186.6,167h5.7l-1.5-63.2c-0.9,0.4-1.8,0.5-2.7,0.2L186.6,167z"/>
	<path class="st5" d="M189.4,95.7c-2,0-3.5,1.7-3.5,3.6c0,2,1.7,3.5,3.6,3.5c2,0,3.5-1.7,3.5-3.6c0-1.3-0.8-2.5-1.9-3.1
		C190.5,95.9,190,95.7,189.4,95.7z"/>
	<path class="st5" d="M193.7,99.7c-0.1,1-0.6,2-1.4,2.7c1.1,1.4,2.3,2.7,3.7,3.8c0.8,0.4,11.2,3.8,14.7,4.6c2.1,0.5,7.3,1.5,7.8,0.5
		c0.1-0.2,0-0.4-0.2-0.7c-0.6-0.8-5.4-3.3-5.7-3.5C201.3,101.2,195.9,99.9,193.7,99.7z"/>
	<path class="st5" d="M185.4,68.2c-0.2,0-0.4,0.2-0.5,0.5c-0.4,0.9-0.2,6.3-0.2,6.6c0.5,12.6,2,17.9,2.9,20.1c1-0.4,2.1-0.5,3.1-0.2
		c0.6-1.6,1.1-3.3,1.4-5c0-0.9-2.3-11.6-3.3-15C188.2,73.2,186.6,68.1,185.4,68.2L185.4,68.2z"/>
	<path class="st5" d="M185.2,99.9c-1.8,0.3-3.5,0.7-5.3,1.3c-0.7,0.5-8.9,7.8-11.3,10.4c-1.7,1.9-6.2,6.9-3.7,6.7
		c1-0.1,5.5-3,5.8-3.2c10.6-6.7,14.5-10.7,15.9-12.5C185.9,101.9,185.4,100.9,185.2,99.9L185.2,99.9z"/>
	<path class="st6" d="M1041.2,161.1l-1.9,1.9c-0.9,0.9-1,1.2-1.8,1.2c-0.7,0.1-1.3,0-2-0.1c-0.1-0.9-0.1-1.9-0.1-2.8
		c0-0.6-2-0.6-2,0.1s0.1,21.4,0.1,26.7c0,1,0.1,1.2,1.2,1.2c0.8,0,1.1-0.3,1.1-1c0-1.4,0-3.5,0-4.9c0-5.5,0-11,0-16.5
		c0-1.1,0.3-0.9,1.2-0.9h0.9c1.5,0,1.5-0.4,3-2c1.3-1.3,1.4-1.4,2.1-2.1S1042,160.4,1041.2,161.1z"/>
	<path class="st7" d="M1047.4,159.2c-2.2-2.1-1.8-1.9-3.8-3.8s-2.6-1.8-6.7-1.8h-5c-1.7,0-3.3,0.7-4.4,2c-1.1,1.3-1.2,3.2-0.2,4.6
		c1.1,1.3,2.7,1.9,4.4,1.8c2.7,0,10.6-0.1,14.1-0.1C1047.9,161.9,1049.1,160.8,1047.4,159.2z"/>
	<path class="st6" d="M384.2,152.1l-1.9,1.9c-0.9,0.9-1,1.2-1.8,1.2c-0.7,0.1-1.3,0-2-0.1c-0.1-0.9-0.1-1.9-0.1-2.8
		c0-0.6-2-0.6-2,0.1s0.1,21.4,0.1,26.7c0,1,0.1,1.2,1.1,1.2c0.8,0,1.1-0.3,1.1-1c0-1.4,0-3.5,0-4.9c0-5.5,0-11,0-16.5
		c0-1.1,0.3-0.9,1.2-0.9h0.9c1.5,0,1.5-0.4,3-2c1.3-1.3,1.4-1.4,2-2.1S385,151.4,384.2,152.1z"/>
	<path class="st7" d="M390.4,150.2c-2.1-2.1-1.8-1.9-3.8-3.8s-2.6-1.8-6.7-1.8h-5c-1.7,0-3.3,0.7-4.4,2c-1.1,1.3-1.2,3.2-0.2,4.6
		c1.1,1.3,2.7,1.9,4.4,1.8c2.7,0,10.6-0.1,14.1-0.1C390.9,152.9,392.1,151.8,390.4,150.2z"/>
	<path class="st6" d="M952.2,146.1l-1.9,1.9c-0.9,0.9-1,1.2-1.8,1.2c-0.7,0.1-1.3,0-2-0.1c-0.1-0.9-0.1-1.9-0.1-2.8
		c0-0.6-2-0.6-2,0.1s0.1,21.4,0.1,26.7c0,1,0.1,1.2,1.2,1.2c0.8,0,1.1-0.3,1.1-1c0-1.4,0-3.5,0-4.9c0-5.5,0-11,0-16.5
		c0-1.1,0.3-0.9,1.2-0.9h0.9c1.5,0,1.5-0.4,3-2c1.3-1.3,1.4-1.4,2-2.1S953,145.4,952.2,146.1z"/>
	<path class="st7" d="M958.4,144.2c-2.2-2.1-1.8-1.9-3.8-3.8s-2.6-1.8-6.7-1.8h-5c-1.7,0-3.3,0.7-4.4,2c-1.1,1.3-1.2,3.2-0.2,4.6
		c1.1,1.3,2.7,1.9,4.4,1.8c2.7,0,10.6-0.1,14.1-0.1C958.9,146.9,960.1,145.8,958.4,144.2z"/>
	<path class="st6" d="M1323.2,171.1l-1.9,1.9c-0.9,0.9-1,1.2-1.8,1.2c-0.7,0.1-1.3,0-2-0.1c-0.1-0.9-0.1-1.9-0.1-2.8
		c0-0.6-2-0.6-2,0.1s0.1,21.4,0.1,26.7c0,1,0.1,1.2,1.2,1.2c0.8,0,1.1-0.3,1.1-1c0-1.4,0-3.5,0-4.9c0-5.5,0-11,0-16.5
		c0-1.1,0.3-0.9,1.2-0.9h0.9c1.5,0,1.5-0.4,3-2c1.3-1.3,1.4-1.4,2.1-2.1S1324,170.4,1323.2,171.1z"/>
	<path class="st7" d="M1329.4,169.2c-2.2-2.1-1.8-1.9-3.8-3.8s-2.6-1.8-6.7-1.8h-5c-1.7,0-3.3,0.7-4.4,2c-1.1,1.3-1.2,3.2-0.2,4.6
		c1.1,1.3,2.7,1.9,4.4,1.8c2.7,0,10.6-0.1,14.1-0.1C1329.9,171.9,1331.1,170.8,1329.4,169.2z"/>
	<path class="st6" d="M866.2,174.1l-1.9,1.9c-0.9,0.9-1,1.2-1.8,1.2c-0.7,0.1-1.3,0-2-0.1c-0.1-0.9-0.1-1.9-0.1-2.8
		c0-0.6-2-0.6-2,0.1s0.1,21.4,0.1,26.7c0,1,0.1,1.2,1.2,1.2c0.8,0,1.1-0.3,1.1-1c0-1.4,0-3.5,0-4.9c0-5.5,0-11,0-16.5
		c0-1.1,0.3-0.9,1.2-0.9h0.9c1.5,0,1.5-0.4,3-2c1.3-1.3,1.4-1.4,2-2.1S867,173.4,866.2,174.1z"/>
	<path class="st7" d="M872.4,172.2c-2.2-2.1-1.8-1.9-3.8-3.8s-2.6-1.8-6.7-1.8h-5c-1.7,0-3.3,0.7-4.4,2c-1.1,1.3-1.2,3.2-0.2,4.6
		c1.1,1.3,2.7,1.9,4.4,1.8c2.7,0,10.6-0.1,14.1-0.1C872.9,174.9,874.1,173.8,872.4,172.2z"/>
	<path class="st6" d="M405.2,164.1l-1.9,1.9c-0.9,0.9-1,1.2-1.8,1.2c-0.7,0.1-1.3,0-2-0.1c-0.1-0.9-0.1-1.9-0.1-2.8
		c0-0.6-2-0.6-2,0.1s0.1,21.4,0.1,26.7c0,1,0.1,1.2,1.1,1.2c0.8,0,1.1-0.3,1.1-1c0-1.4,0-3.5,0-4.9c0-5.5,0-11,0-16.5
		c0-1.1,0.3-0.9,1.2-0.9h0.9c1.5,0,1.5-0.4,3-2c1.3-1.3,1.4-1.4,2-2.1S406,163.4,405.2,164.1z"/>
	<path class="st7" d="M411.4,162.2c-2.1-2.1-1.8-1.9-3.8-3.8s-2.6-1.8-6.7-1.8h-5c-1.7,0-3.3,0.7-4.4,2c-1.1,1.3-1.2,3.2-0.2,4.6
		c1.1,1.3,2.7,1.9,4.4,1.8c2.7,0,10.6-0.1,14.1-0.1C411.9,164.9,413.1,163.8,411.4,162.2z"/>
	<path class="st6" d="M1068.2,146.1l-1.9,1.9c-0.9,0.9-1,1.2-1.8,1.2c-0.7,0.1-1.3,0-2-0.1c-0.1-0.9-0.1-1.9-0.1-2.8
		c0-0.6-2-0.6-2,0.1s0.1,21.4,0.1,26.7c0,1,0.1,1.2,1.2,1.2c0.8,0,1.1-0.3,1.1-1c0-1.4,0-3.5,0-4.9c0-5.5,0-11,0-16.5
		c0-1.1,0.3-0.9,1.2-0.9h0.9c1.5,0,1.5-0.4,3-2c1.3-1.3,1.4-1.4,2.1-2.1S1069,145.4,1068.2,146.1z"/>
	<path class="st7" d="M1074.4,144.2c-2.2-2.1-1.8-1.9-3.8-3.8s-2.6-1.8-6.7-1.8h-5c-1.7,0-3.3,0.7-4.4,2c-1.1,1.3-1.2,3.2-0.2,4.6
		c1.1,1.3,2.7,1.9,4.4,1.8c2.7,0,10.6-0.1,14.1-0.1C1074.9,146.9,1076.1,145.8,1074.4,144.2z"/>
	<path class="st6" d="M174.2,171.1l-1.9,1.9c-0.9,0.9-1,1.2-1.8,1.2c-0.7,0.1-1.3,0-2-0.1c-0.1-0.9-0.1-1.9-0.1-2.8
		c0-0.6-2-0.6-2,0.1s0.1,21.4,0.1,26.7c0,1,0.1,1.2,1.1,1.2c0.8,0,1.1-0.3,1.1-1c0-1.4,0-3.5,0-4.9c0-5.5,0-11,0-16.5
		c0-1.1,0.3-0.9,1.2-0.9h0.9c1.5,0,1.5-0.4,3-2c1.3-1.3,1.4-1.4,2.1-2.1S175,170.4,174.2,171.1z"/>
	<path class="st7" d="M180.4,169.2c-2.1-2.1-1.8-1.9-3.8-3.8s-2.6-1.8-6.7-1.8h-5c-1.7,0-3.3,0.7-4.4,2c-1.1,1.3-1.2,3.2-0.2,4.6
		c1.1,1.3,2.7,1.9,4.4,1.8c2.7,0,10.6-0.1,14.1-0.1C180.9,171.9,182.1,170.8,180.4,169.2z"/>
	<path class="st6" d="M291.2,137.1l-1.9,1.9c-0.9,0.9-1,1.2-1.8,1.2c-0.7,0.1-1.3,0-2-0.1c-0.1-0.9-0.1-1.9-0.1-2.8
		c0-0.6-2-0.6-2,0.1s0.1,21.4,0.1,26.7c0,1,0.1,1.2,1.1,1.2c0.8,0,1.1-0.3,1.1-1c0-1.4,0-3.5,0-4.9c0-5.5,0-11,0-16.5
		c0-1.1,0.3-0.9,1.2-0.9h0.9c1.5,0,1.5-0.4,3-2c1.3-1.3,1.4-1.4,2-2.1S292,136.4,291.2,137.1z"/>
	<path class="st7" d="M297.4,135.2c-2.1-2.1-1.8-1.9-3.8-3.8s-2.6-1.8-6.7-1.8h-5c-1.7,0-3.3,0.7-4.4,2c-1.1,1.3-1.2,3.2-0.2,4.6
		c1.1,1.3,2.7,1.9,4.4,1.8c2.7,0,10.6-0.1,14.1-0.1C297.9,137.9,299.1,136.8,297.4,135.2z"/>
	<path class="st6" d="M102.2,175.1l-1.9,1.9c-0.9,0.9-1,1.2-1.8,1.2c-0.7,0.1-1.3,0-2-0.1c-0.1-0.9-0.1-1.9-0.1-2.8
		c0-0.6-2-0.6-2,0.1s0.1,21.4,0.1,26.7c0,1,0.1,1.2,1.2,1.2c0.8,0,1.1-0.3,1.1-1c0-1.4,0-3.5,0-4.9c0-5.5,0-11,0-16.5
		c0-1.1,0.3-0.9,1.2-0.9H99c1.5,0,1.5-0.4,3-2c1.3-1.3,1.4-1.4,2.1-2.1S103,174.4,102.2,175.1z"/>
	<path class="st7" d="M108.4,173.2c-2.2-2.1-1.8-1.9-3.8-3.8s-2.6-1.8-6.7-1.8h-5c-1.7,0-3.3,0.7-4.4,2c-1.1,1.3-1.2,3.2-0.2,4.6
		c1.1,1.3,2.7,1.9,4.4,1.8c2.7,0,10.6-0.1,14.1-0.1C108.9,175.9,110.1,174.8,108.4,173.2z"/>
	<path class="st6" d="M1404.2,137.1l-1.9,1.9c-0.9,0.9-1,1.2-1.8,1.2c-0.7,0.1-1.3,0-2-0.1c-0.1-0.9-0.1-1.9-0.1-2.8
		c0-0.6-2-0.6-2,0.1s0.1,21.4,0.1,26.7c0,1,0.1,1.2,1.2,1.2c0.8,0,1.1-0.3,1.1-1c0-1.4,0-3.5,0-4.9c0-5.5,0-11,0-16.5
		c0-1.1,0.3-0.9,1.2-0.9h0.9c1.5,0,1.5-0.4,3-2c1.3-1.3,1.4-1.4,2.1-2.1S1405,136.4,1404.2,137.1z"/>
	<path class="st7" d="M1410.4,135.2c-2.2-2.1-1.8-1.9-3.8-3.8s-2.6-1.8-6.7-1.8h-5c-1.7,0-3.3,0.7-4.4,2c-1.1,1.3-1.2,3.2-0.2,4.6
		c1.1,1.3,2.7,1.9,4.4,1.8c2.7,0,10.6-0.1,14.1-0.1C1410.9,137.9,1412.1,136.8,1410.4,135.2z"/>
	<path class="st6" d="M111.2,111.1l-1.9,1.9c-0.9,0.9-1,1.2-1.8,1.2c-0.7,0.1-1.3,0-2-0.1c-0.1-0.9-0.1-1.9-0.1-2.8
		c0-0.6-2-0.7-2,0.1s0.1,21.4,0.1,26.7c0,1,0.1,1.2,1.2,1.2c0.8,0,1.1-0.3,1.1-1c0-1.4,0-3.5,0-4.9c0-5.5,0-11,0-16.5
		c0-1.1,0.3-0.9,1.2-0.9h0.9c1.5,0,1.5-0.4,3-2c1.3-1.3,1.4-1.4,2.1-2.1S112,110.4,111.2,111.1z"/>
	<path class="st7" d="M117.4,109.2c-2.2-2.2-1.8-1.9-3.8-3.8s-2.6-1.8-6.7-1.8h-5c-1.7,0-3.3,0.7-4.4,2c-1.1,1.3-1.2,3.2-0.2,4.6
		c1.1,1.3,2.7,1.9,4.4,1.8c2.7,0,10.6-0.1,14.1-0.1C117.9,111.9,119.1,110.8,117.4,109.2z"/>
	<path class="st3" d="M650.7,224.2C652.5,221.4,657.4,224.2,650.7,224.2z"/>
	<path class="st8" d="M644.1,187.6c-1.9,0.1-2.2-0.1-2.9,1.4c-0.2,0.5-0.4,0.9-0.5,1.4c-0.1,0.5,0,1,0.2,1.4
		c0.3,0.4,0.9,0.4,1.3,0.1c0.4-0.3,0.3-1.2,0.5-1.7c0.2-0.6,0.5-1.2,0.8-1.7C643.7,188.6,644.9,187.6,644.1,187.6L644.1,187.6z"/>
	<path class="st9" d="M795.4,193.3c-1.6-2.2-3.9-3.7-6.5-4.5c-4.4-1.3-10.4-0.7-13.6-0.9c-6.1-0.3-12.1-0.1-18.3-0.3
		c-7.1-0.2-14.2-0.2-21.2,0c-28.3,0.8-56.7-0.6-85-0.1c-1.8,0-5.8-1.6-6.5,0.2c-0.2,0.4-0.5,0.4-1,1.1c-0.5,0.8-0.8,1.8-1,2.7
		c-0.1,0.6-0.7,1.1-1.6-0.1c-0.3,2-0.5,4.1-0.5,6.1c0,1.9,0.1,3.7,0.4,5.5c0.2,1.3,0.3,1.5,1.1,1.5c2.7,0,6.1,0.7,8.8,0.7
		c4.1,0,8.3,0.7,12.2,0.7h21.6c14.1,0,28.4-0.6,42.5-0.6c7.6,0,13.5-0.2,20.2-0.2c7.3,0,15.1-0.3,21.9,0.5c3,0.2,5.9,0.8,8.8,1.7
		c3.4,1.1,6.6,2.7,9.6,4.5c3.1,1.9,12.6-5.5,12.5-6.3c-0.3-2-0.7-4-1.2-5.9c-0.4-1.2-0.9-2.3-1.6-3.3
		C796.4,195.1,795.7,194.1,795.4,193.3z M651.8,201.3c-1.6,0.2-3.2,0.3-4.9,0.4c-2,0.1-4.3,0.8-4.7-1.6c2.4,2.4,8.3,1.1,11.4,1
		C653,201.2,652.4,201.2,651.8,201.3L651.8,201.3z M662.2,202.1c-0.2-1.1-1.8-0.9-2.5-1c4.8,0,9.7,0.2,14.5,0.5
		c2.5,0.1,4.9,0.3,7.4,0.4c2.1,0.1,5-0.3,7,0.3L662.2,202.1C662.1,201.7,671,202.1,662.2,202.1L662.2,202.1z"/>
	<path class="st3" d="M798.5,199.5c-1.5-4.2-2.2-7.5-6.7-10.1c-2.1-1.3-6.1-3.1-13.9-3.1c-7.1,0-11.7,0-14.5,0
		c-15.2,0-30.3-0.3-45.5-0.3c-15.6,0-31.1-0.1-47.7-0.1h-24.4c-1.3,0.2-2.5,0.9-3.4,1.9c1.7,0,2.7,0,3.9,0c2.5-0.1,8-0.1,10.1-0.1
		c6.5,0,17.2,0,23.8,0c15.2,0,24.1,0.3,39.1,0.3c15.9,0,31.6,0,47.7,0c6.7,0,11.7,0,17.5,0.3c1.6,0.1,5.8,0.5,8.8,2.9
		C795.8,193.2,797.2,197,798.5,199.5z"/>
	<path class="st3" d="M797.8,206.8c-0.3-2.7-1.3-5.4-2.9-7.6c-0.6-0.9-2.1,0-1.5,0.9c0.1,0.1,0.4,0.2,0.5,0.3s0.2,0.2,0.2,0.4l0,0
		c-1.2-0.8-2.7-1-4.1-0.8c-0.5,0.1-0.9,0.5-0.9,1c-0.4-0.5-1.5-0.6-1.5,0.2c0,3.3-0.2,6-0.2,8.7c0,0.4,0.8,0.4,1.2,0.5
		c1.1,0.3,6.9,1.3,9,2c0.4,0.1,0.7,0.2,0.7-0.5C798,211.5,797.9,207.8,797.8,206.8z"/>
	<path class="st10" d="M794.9,198.6c-1.8,0-6.3,0-7.7,0c0,1.5,0,2.3,0,3.7c1.8-0.1,1.6-0.6,3.6-0.5c2.1,0.1,4.1,0.6,6,1.4
		C796.5,201.6,795.9,200,794.9,198.6z"/>
	<path class="st10" d="M697,195.7c1.1,0,3.2-1.8,2.1-1.8h-52.6c-1.1,0-3.3,1.8-2.2,1.8L697,195.7z"/>
	<path class="st10" d="M730.5,198.5l-48.2-0.5c-1.1,0-2.3,1.7-1.2,1.7l47.8,0.5C730.1,200.1,731.7,198.5,730.5,198.5z"/>
	<path class="st10" d="M745.5,195h-5.2c-0.8,0-2.4,0.6-1.8,1.1c0.4,0.3,8.8-0.1,10.5-0.1c7.1,0,13.2,0,19.7,0c3.7,0,14.1,0,14.4-0.1
		c0.8-0.3,2.2-1.2,1.3-1.2C769.8,194.9,758.4,195,745.5,195z"/>
	<path class="st9" d="M796.5,230.7c-3.6-1.4-5.9-2.9-10.5-3c-5.2-0.1-11.2-8.8-13.2-9.8c-3.3-1.7-7.8-1-10.8,0.8
		c-1.7,0.9-7.4,5.6-4.8,7.8c-22.9,0-46.3-2.4-69.2,0.5c1.4-4.1-0.8-8.5-4.9-9.8c-1.2-0.4-2.4-0.5-3.7-0.3
		c-4.8,0.6-14.3,3.2-11.5,10.1c-7,0.2-18.9-0.6-22.2,1.2c-7.1,3.9-1.8,4.5,1.8,4.5c17.9,0,40.2-0.1,57.4-0.1
		c18.4,0,36.5,0.2,54.1,0.2c9.3,0,17,0.2,26,0.2c2.6,0,10.8-0.1,12.6-0.2C798.8,232.8,799.1,231.7,796.5,230.7L796.5,230.7z
		 M682.6,224.4c-1.9,4.2,1,4.4-3.8,4.8c-4.3,0.4-2.8,0.4-3.6-2.2C672.5,218.2,683.1,223.1,682.6,224.4L682.6,224.4z"/>
	<path class="st11" d="M762.2,228c2.1,0,3.5-6,4.9-6.5c4.5-1.8,3.7,1,5.6,3.3c1.2,1.4-2.5,2.2,2.3,2.6c5.3,0.4-0.2-8.3-2.2-9.4
		c-3.3-1.7-7.8-1-10.8,0.8c-1.7,0.9-7.4,5.6-4.8,7.8c-22.9,0-46.3-2.4-69.2,0.5c1.4-4.1-0.8-8.5-4.9-9.8c-1.2-0.4-2.4-0.5-3.7-0.3
		c-4.8,0.6-13.3,4.1-10.6,11L762.2,228z M682.6,224.4c-1.9,4.2,1,4.4-3.8,4.8c-4.3,0.4-2.8,0.4-3.6-2.2
		C672.5,218.2,683.1,223.1,682.6,224.4L682.6,224.4z"/>
	<path class="st10" d="M778,199.7c1.1,0,2.5-1.6,1.4-1.6l-44.2-0.2c-1.1,0-2.5,1.7-1.4,1.7h10.4"/>
	<path class="st12" d="M725.2,190.4l-49.4-0.3c-1.1,0-3,1.7-1.9,1.7c16.5,0.1,32.4,0.4,48.9,0.5C724,192.2,726.3,190.4,725.2,190.4z
		"/>
	<path class="st11" d="M796,201.7c-2.7-0.4-5.3-0.5-8-0.5c-8.8-0.1-17.8,0-26.8-0.1c-30.2-0.3-60.4-0.4-90.6-0.8
		c-4.7-0.1-9.4,0-14-0.2c-2.9-0.1-1-0.5-8.6-0.5c-1,0-4.1,0-5.9,0c-0.5,0-0.5,0.7-0.4,1.7c0.1,0.7,0.5,0.8,1.2,0.8
		c3,0.1,9.1,0,10.4,0c15,0.4,30.6,0.3,45.9,0.5c29.6,0.3,58.8,0.7,88.4,0.8c4.8,0,9.4-0.9,10.3,4.8s-1.7,3.9-5.9,3
		c-3.9-0.8-3.7-0.2-4.9,0.4c0.6,0.5,3.5,2.3,6.8,4.4c2.2,1.3,4.2,2.8,6.2,4.4c0-1.7,0-9.4-0.3-14.6C799.5,203.8,798,202.1,796,201.7
		z"/>
	<path class="st11" d="M807.6,200.6c-0.1-0.8-0.3-1.6-0.5-2.4c-0.2-1.1-0.6-3.1-1.6-3.7c-0.9-0.4-2-0.6-3-0.5l-1.9-0.1l-4.6-0.2
		c-1.7-0.1-3.3-0.1-4.9-0.1c-0.8,0-1.6,0-2.4,0c-0.4,0-0.8,0-1.1,0.1c-0.5,0-0.9,0.1-1.3,0.3c-0.3,0.3,0.1,0.7,0.4,0.9
		c0.8,0.5,1.7,0.8,2.7,0.9c2.7,0.3,5.3,0.5,8,0.4c1.3,0,2.7-0.1,4-0.2c1.1-0.1,2.1-0.1,3.2-0.1c0.3,0.7,0.6,1.4,0.7,2.1
		c0.2,0.6,0.3,1.3,0.5,2c0.2,0.9,0.4,1.8,0.6,2.6c0.1,0.5,0.3,0.8,0.9,0.8s0.8-0.1,0.8-0.6C807.9,202,807.7,201.3,807.6,200.6z"/>
	<path class="st3" d="M807.5,198.5c-0.1-1.2-0.5-2.4-1.1-3.5c-0.8-1-0.8-1-2.3-1c-0.4,0,1.8-0.4,2.5,2.2c0.1,0.3,0.4,1.6,0.7,3
		s0.5,3.1,0.5,3.2s0.1,0.4,0.3,0.4C808,201.4,807.8,200,807.5,198.5z"/>
	<path class="st13" d="M798.2,218.8c-2.7-2.1-5.5-3.5-8.2-5.4c-4.7-3.3-10-5.7-15.5-7c-6-1.3-14.7-1.6-22.2-1.6h-80.8
		c-6.6,0-24.9-0.2-28.5-0.2c-2.5,0-2.4,3.8-1,5.6c1.6,1.9,3.8,3.4,5.6,5.2c2.5,2.4,5,5.6,7.9,7.6c2.3,1.7,3.6,5,6.5,5l9.9-0.1
		c-0.5-2-0.6-4.8,0.5-6.8c1.3-2.2,2.5-2.9,6.7-2.9c4.3,0,5.4,0.6,6.8,4c0.6,1.9,0.8,3.9,0.4,5.8c1.3,0,12.6-0.1,17-0.1l43,0.2h13.6
		c-0.1-3.4,0.2-4.8,1.3-7c1.4-3,3.8-3.1,6.5-3.1s5.3,0.2,6.8,3.7c1,2.2,1.1,3.7,0.7,6.8c1.5,0,7.6,0,9.7,0c3.5,0,7.5-0.5,11.6-0.5
		c3.2,0,4.2-0.2,4.2-2.3c0-0.3,0.4-2.1,0.4-3.2C801.1,220.9,799.4,219.8,798.2,218.8z"/>
	<path class="st11" d="M774.2,223.9c-1-3.7-4.8-5.9-8.5-4.9c-0.4,0.1-0.9,0.3-1.3,0.5c-2.9,1.5-4.4,4.8-3.6,8c1,4.2,6.1,5.9,9.8,4.2
		C773.9,230.4,774.7,227.1,774.2,223.9z"/>
	<path class="st11" d="M678.8,218.7c-3.6-0.1-6.7,2.7-6.8,6.3c0,0.2,0,0.3,0,0.5c0,3.8,3,6.9,6.8,6.9c3.8,0,6.9-3,6.9-6.8
		c0-3.8-3-6.9-6.8-6.9C678.8,218.7,678.8,218.7,678.8,218.7z"/>
	<path class="st13" d="M767.5,222c-2.1-0.1-3.9,1.5-4,3.6c0,0.1,0,0.3,0,0.4c0,2.2,1.8,4,4,4c2.2,0,4-1.8,4-4c0.1-2.1-1.6-3.9-3.8-4
		C767.7,222,767.6,222,767.5,222z"/>
	<path class="st13" d="M678.7,221.8c-2.1-0.1-4,1.5-4.1,3.6c0,0.2,0,0.3,0,0.5c0,2.2,1.9,4,4.1,4c2.2,0,4-1.9,4-4.1l0,0
		c0.1-2.1-1.5-3.9-3.7-4C678.9,221.8,678.8,221.8,678.7,221.8z"/>
	<path class="st14" d="M666,224.1c-2.4-0.9-4.8-2-7-3.3c-3.3-1.8-4.3-3.2-6.4-5.7c-1.4-2-2.4-4.1-3.1-6.4c-0.3-0.9-1-3.2-1.3-4.1
		c-1.9,0-4.2,0-5.8,0c-0.6,0-1.8,4.1-1.8,6.4c0,1-0.6,2.6-0.6,4.2c0,1.6,0.1,3.2,0.2,4.8c0.1,1.2,0.3,2.9,0.4,4
		c0.1,1.5,0,1.6,1.4,1.9c5.9,1.1,8.1,1.8,14,1.8c3,0,6,0.2,9.3,0.2h6.2c-0.1,0-0.1-1.5-0.2-1.8C670.4,226.1,668.8,225,666,224.1z"/>
	<path class="st15" d="M665.4,225.2c-1.9-0.6-3.8-1.4-5.5-2.3c-3.3-1.6-6.3-3.9-8.6-6.8c-1.2-1.4-2.4-4.6-3-6.5
		c-0.3-0.9-1.2-3.7-1.6-4.9c-1.9,0-3.3,0-4.9,0c-0.6,0-0.9,0-1.1-0.9c-0.3-1.7-0.4-3.5-0.6-5.2c0,1,0,1.8,0,2.8c0,1.3,0,2.5,0,3.8
		c0,1.8,0,4.2-0.1,6.5c0,1-0.6,2.6-0.6,4.2c0,1.6,0.1,3.2,0.2,4.8c0.1,1.2,0.3,2.9,0.4,4c0.1,1.5,0,1.6,1.4,1.9
		c4.6,1.1,9.3,1.6,14,1.5h9.2h7.3c-0.1-0.3-0.3-0.5-0.4-0.8C670.5,227.1,668.2,226.1,665.4,225.2z"/>
	<path class="st14" d="M685.6,217.5l2.5-7.9c0.2-1.1,1.7-1.6,2.2-0.8l1.3,1.7c0,0,0.1,0.3,0.2,0.2l9.3-5.9h9.8l-15.5,10.7
		c-0.1,0-0.1,0,0,0.1l1.3,1.7c0.4,0.5,0.3,1.2-0.2,1.7c-0.2,0.1-0.4,0.2-0.6,0.2l-9,0.2c-0.7,0.1-1.4-0.4-1.6-1.1
		C685.5,218,685.5,217.7,685.6,217.5z"/>
	<path class="st15" d="M686.5,217.6l2.5-7.6c0.1-0.3,0.4-0.4,0.7-0.3c0.1,0,0.2,0.1,0.2,0.2l1.7,2.3l10.5-7.2h6.8l-14.8,10.5
		l1.8,2.1c0.4,0.5,0.1,0.8-0.4,0.9h-8.3c-0.3,0-0.6-0.3-0.6-0.6C686.5,217.7,686.5,217.6,686.5,217.6z"/>
	<path class="st14" d="M712.2,214.7l-2.5,7.9c-0.2,1.1-1.7,1.6-2.2,0.8l-1.3-1.7c0,0-0.1,0-0.1,0c0,0,0,0,0,0l-8.4,6.3h-9.9
		l14.7-11.1c0-0.1,0-0.1,0-0.2L701,215c-0.4-0.5-0.3-1.3,0.2-1.7c0.2-0.1,0.4-0.2,0.6-0.3l9-0.3c0.7-0.1,1.4,0.4,1.6,1.1
		C712.3,214.2,712.3,214.4,712.2,214.7z"/>
	<path class="st15" d="M711.3,214.6l-2.5,7.6c-0.1,0.3-0.4,0.4-0.7,0.3c-0.1,0-0.2-0.1-0.2-0.2l-1.7-2L696,228l-7.2,0.1l14.9-11
		l-1.7-2.2c-0.4-0.5-0.1-0.9,0.4-0.9l8.3-0.1c0.3,0,0.6,0.3,0.5,0.6C711.3,214.5,711.3,214.5,711.3,214.6z"/>
	<path class="st14" d="M717.2,208.5c-0.4,0-0.8,0.3-0.8,0.8c0,0,0,0,0,0v7.2h2v-3.1h2.9c0.4,0,0.8-0.3,0.8-0.8c0,0,0,0,0,0v-0.9
		h-3.7v-1.2c0-0.2,0.2-0.4,0.4-0.4c0,0,0,0,0,0h3.5c0.4,0,0.8-0.3,0.8-0.8c0,0,0,0,0,0v-0.9L717.2,208.5L717.2,208.5z"/>
	<path class="st14" d="M726.4,214.8c-0.2,0-0.4-0.2-0.4-0.4c0,0,0,0,0,0v-5.2c0-0.4-0.3-0.8-0.8-0.8l0,0h-1.3v7.2
		c0,0.4,0.3,0.8,0.8,0.8l0,0h4.2c0.4,0,0.8-0.3,0.8-0.8c0,0,0,0,0,0v-0.9L726.4,214.8L726.4,214.8z"/>
	<path class="st14" d="M732.6,216.5h-2v-4.2c0-0.4,0.3-0.8,0.8-0.8l0,0h1.3L732.6,216.5L732.6,216.5z"/>
	<path class="st14" d="M731.8,210.8h-1.3v-1.5c0-0.4,0.3-0.8,0.8-0.8l0,0h0.5c0.4,0,0.8,0.3,0.8,0.8c0,0,0,0,0,0v0.7
		C732.6,210.4,732.3,210.8,731.8,210.8"/>
	<path class="st14" d="M745.7,215.2h-1.4c-0.4,0-0.7-0.3-0.7-0.7v-1.4h2.1c0.6,0,1,0.5,1,1S746.3,215.2,745.7,215.2 M743.5,209.8
		h1.9c0.5,0,0.9,0.4,0.9,0.9c0,0.5-0.4,0.9-0.9,0.9h-1.3c-0.4,0-0.7-0.3-0.7-0.6V209.8z M747.9,212.6l-0.2-0.2
		c0.4-0.4,0.6-1,0.5-1.6c0.1-1.2-0.8-2.2-2-2.3c-0.1,0-0.2,0-0.4,0h-3.2c-0.4,0-0.8,0.3-0.8,0.8c0,0,0,0,0,0v6.4
		c0,0.4,0.3,0.8,0.8,0.8l0,0h3.5c1.2,0.1,2.2-0.7,2.3-1.9c0-0.1,0-0.3,0-0.4C748.5,213.6,748.3,213,747.9,212.6"/>
	<path class="st14" d="M755.7,208.5h-0.9c-0.4,0-0.8,0.3-0.8,0.8l0,0v4.7c0,0.6-0.5,1.1-1.1,1.1c-0.1,0-0.1,0-0.2,0h-0.4
		c-0.6,0.1-1.2-0.3-1.3-0.9c0-0.1,0-0.1,0-0.2v-5.5h-0.9c-0.4,0-0.8,0.3-0.8,0.8l0,0v5c0,1.3,1,2.3,2.3,2.4c0.1,0,0.2,0,0.4,0h1
		c1.7,0,2.6-0.9,2.6-2.3L755.7,208.5z"/>
	<path class="st14" d="M758.9,210.1h2.6c0.4,0,0.8-0.3,0.8-0.8c0,0,0,0,0,0v-0.9h-3.3c-1.3,0-2.4,1.1-2.4,2.4c0,1.3,1.1,2.4,2.4,2.4
		h0h1c0.4,0,0.8,0.4,0.8,0.8c0,0.4-0.3,0.8-0.7,0.8c0,0,0,0,0,0h-3.3v0.9c0,0.4,0.3,0.8,0.8,0.8l0,0h2.6c1.3,0,2.4-1.1,2.4-2.4
		c0-1.3-1.1-2.3-2.4-2.4h-1.1c-0.4,0-0.8-0.3-0.8-0.8C758.1,210.5,758.4,210.1,758.9,210.1"/>
	<path class="st14" d="M740.4,215.1l-1.4-1.9l-1.2,1.6l1,1.4c0.3,0.4,0.9,0.5,1.3,0.2l0,0C740.5,216.1,740.6,215.5,740.4,215.1"/>
	<path class="st14" d="M738.5,212.5l-1.2-1.6l-1.5-2.1c-0.3-0.4-0.9-0.5-1.3-0.2l0,0c-0.4,0.3-0.5,0.9-0.2,1.3l1.9,2.6l-1.9,2.6
		c-0.3,0.4-0.2,1,0.2,1.3l0,0c0.4,0.3,1,0.2,1.3-0.2l1.1-1.5L738.5,212.5z"/>
	<path class="st14" d="M740.2,208.6L740.2,208.6c-0.4-0.3-1-0.2-1.3,0.2l-1,1.4l1.2,1.6l1.4-1.9
		C740.7,209.5,740.6,208.9,740.2,208.6"/>
	<path class="st14" d="M775.2,228.2c0.9,0.1,17.4-0.5,22.5-0.6c1.8-0.1,2.9,0,3-1.4c0.1-1.2,0.5-3.9,0.1-4.9s-1.3-1.3-3-2.6
		c-0.8-0.7-1.6-1.3-2.5-1.8c-1.7,1.7-3.6,3.2-5.7,4.4c-3.6,1.7-7.4,3.1-11.2,4.2c-1,0.2-2,0.4-3,0.5
		C775.3,226.8,775.3,227.5,775.2,228.2z"/>
	<path class="st15" d="M775.1,228.5c0.5,0,8.9,0,15.7,0c2.7,0,5.3-0.2,8-0.6c1.7-0.2,2-0.5,2-1.8c0.1-1.2,0.4-3.7,0-4.6
		s-0.9-1.3-2.6-2.5l-2.2-1.6c-1.8,1.8-3.8,3.3-6,4.7c-3.6,1.7-7.4,3.1-11.2,4.3c-1.1,0.2-2.3,0.4-3.5,0.4
		C775.3,227.5,775.2,227.8,775.1,228.5z"/>
</g>
</svg>
