<?xml version="1.0" encoding="utf-8"?>
<!-- Generator: Adobe Illustrator 22.0.0, SVG Export Plug-In . SVG Version: 6.00 Build 0)  -->
<svg version="1.1" id="Laag_1" xmlns="http://www.w3.org/2000/svg" xmlns:xlink="http://www.w3.org/1999/xlink" x="0px" y="0px"
	 viewBox="0 0 192 188" style="enable-background:new 0 0 192 188;" xml:space="preserve">
<style type="text/css">
	.st0{fill:#FFFFFF;}
</style>
<g>
	<path class="st0" d="M133.5,141.5h-73c-28.1,0-51-22.9-51-51c0-28.1,22.9-51,51-51h73c28.1,0,51,22.9,51,51
		C184.5,118.6,161.6,141.5,133.5,141.5z M60.5,50.5c-22.1,0-40,17.9-40,40c0,22.1,17.9,40,40,40h73c22.1,0,40-17.9,40-40
		c0-22.1-17.9-40-40-40H60.5z"/>
</g>
<circle class="st0" cx="132.8" cy="90" r="27.8"/>
</svg>
